<mxfile host="Electron" agent="Mozilla/5.0 (Windows NT 10.0; Win64; x64) AppleWebKit/537.36 (KHTML, like Gecko) draw.io/28.0.6 Chrome/138.0.7204.100 Electron/37.2.3 Safari/537.36" version="28.0.6">
  <diagram name="第 1 页" id="a_OFshZMQqLLxeOcO5ai">
    <mxGraphModel dx="588" dy="503" grid="1" gridSize="10" guides="1" tooltips="1" connect="1" arrows="1" fold="1" page="1" pageScale="1" pageWidth="827" pageHeight="1169" math="0" shadow="0">
      <root>
        <mxCell id="0" />
        <mxCell id="1" parent="0" />
        <mxCell id="yoV51zKAqpRMK7yCvxUC-2" style="edgeStyle=orthogonalEdgeStyle;rounded=0;orthogonalLoop=1;jettySize=auto;html=1;entryX=0;entryY=0.5;entryDx=0;entryDy=0;" edge="1" parent="1" source="zkH8B3Pm-02PmsQJEFJC-3" target="yoV51zKAqpRMK7yCvxUC-1">
          <mxGeometry relative="1" as="geometry" />
        </mxCell>
        <mxCell id="zkH8B3Pm-02PmsQJEFJC-3" value="获取并清洗数据&lt;div&gt;（data.py）&lt;/div&gt;" style="rounded=1;whiteSpace=wrap;html=1;" parent="1" vertex="1">
          <mxGeometry x="40" y="170" width="120" height="60" as="geometry" />
        </mxCell>
        <mxCell id="yoV51zKAqpRMK7yCvxUC-4" style="edgeStyle=orthogonalEdgeStyle;rounded=0;orthogonalLoop=1;jettySize=auto;html=1;entryX=0;entryY=0.5;entryDx=0;entryDy=0;" edge="1" parent="1" source="yoV51zKAqpRMK7yCvxUC-1" target="yoV51zKAqpRMK7yCvxUC-3">
          <mxGeometry relative="1" as="geometry" />
        </mxCell>
        <mxCell id="yoV51zKAqpRMK7yCvxUC-1" value="世界城市聚类&lt;div&gt;及其可视化&lt;br&gt;&lt;div&gt;（kmeans0.py）&lt;/div&gt;&lt;/div&gt;" style="rounded=1;whiteSpace=wrap;html=1;" vertex="1" parent="1">
          <mxGeometry x="210" y="170" width="120" height="60" as="geometry" />
        </mxCell>
        <mxCell id="yoV51zKAqpRMK7yCvxUC-6" style="edgeStyle=orthogonalEdgeStyle;rounded=0;orthogonalLoop=1;jettySize=auto;html=1;entryX=0.5;entryY=0;entryDx=0;entryDy=0;" edge="1" parent="1" source="yoV51zKAqpRMK7yCvxUC-3" target="yoV51zKAqpRMK7yCvxUC-5">
          <mxGeometry relative="1" as="geometry" />
        </mxCell>
        <mxCell id="yoV51zKAqpRMK7yCvxUC-3" value="中国省份聚类&lt;div&gt;及其可视化&lt;/div&gt;&lt;div&gt;（kmeans1.py）&lt;/div&gt;" style="rounded=1;whiteSpace=wrap;html=1;" vertex="1" parent="1">
          <mxGeometry x="370" y="170" width="120" height="60" as="geometry" />
        </mxCell>
        <mxCell id="yoV51zKAqpRMK7yCvxUC-8" style="edgeStyle=orthogonalEdgeStyle;rounded=0;orthogonalLoop=1;jettySize=auto;html=1;" edge="1" parent="1" source="yoV51zKAqpRMK7yCvxUC-5" target="yoV51zKAqpRMK7yCvxUC-7">
          <mxGeometry relative="1" as="geometry" />
        </mxCell>
        <mxCell id="yoV51zKAqpRMK7yCvxUC-5" value="中国省份聚类和预测&lt;div&gt;及其可视化&lt;/div&gt;&lt;div&gt;（kmeans2.py）&lt;/div&gt;" style="rounded=1;whiteSpace=wrap;html=1;" vertex="1" parent="1">
          <mxGeometry x="370" y="290" width="120" height="60" as="geometry" />
        </mxCell>
        <mxCell id="yoV51zKAqpRMK7yCvxUC-10" style="edgeStyle=orthogonalEdgeStyle;rounded=0;orthogonalLoop=1;jettySize=auto;html=1;entryX=1;entryY=0.5;entryDx=0;entryDy=0;" edge="1" parent="1" source="yoV51zKAqpRMK7yCvxUC-7" target="yoV51zKAqpRMK7yCvxUC-9">
          <mxGeometry relative="1" as="geometry" />
        </mxCell>
        <mxCell id="yoV51zKAqpRMK7yCvxUC-7" value="ai模块智能分析&lt;div&gt;（ai_mod.py）&lt;/div&gt;" style="rounded=1;whiteSpace=wrap;html=1;" vertex="1" parent="1">
          <mxGeometry x="210" y="290" width="120" height="60" as="geometry" />
        </mxCell>
        <mxCell id="yoV51zKAqpRMK7yCvxUC-9" value="业务完成" style="rounded=1;whiteSpace=wrap;html=1;" vertex="1" parent="1">
          <mxGeometry x="40" y="290" width="120" height="60" as="geometry" />
        </mxCell>
      </root>
    </mxGraphModel>
  </diagram>
</mxfile>
